<svg xmlns="http://www.w3.org/2000/svg" width="20" height="20" viewBox="0 0 20 20" fill="none">
  <path d="M13.9808 2.80618C14.1843 2.56552 14.4359 2.36964 14.7197 2.231C15.0035 2.09236 15.3132 2.01403 15.6291 2.00097C15.9451 1.98792 16.2603 2.04045 16.5546 2.1552C16.849 2.26995 17.1161 2.44441 17.3389 2.66747C17.5617 2.89052 17.7353 3.15727 17.8487 3.45071C17.9621 3.74416 18.0127 4.05786 17.9973 4.37183C17.982 4.6858 17.901 4.99314 17.7595 5.27427C17.6181 5.5554 17.4193 5.80416 17.1757 6.00468L6.39298 16.7996L2 17.999L3.19808 13.6011L13.9808 2.80618Z" stroke="#1890FF" stroke-width="1.152" stroke-linecap="round" stroke-linejoin="round"/>
</svg>