<svg xmlns="http://www.w3.org/2000/svg" width="18" height="22" viewBox="0 0 18 22" fill="none">
  <path d="M6.50106 18.501C6.50106 17.787 6.50106 17.431 6.46206 17.194C6.34006 16.431 6.31906 16.382 5.83206 15.782C5.68006 15.595 5.12006 15.094 4.00006 14.09C2.86794 13.0774 2.06995 11.745 1.71166 10.2689C1.35336 8.79292 1.45167 7.2429 1.99356 5.82398C2.53545 4.40505 3.49539 3.18409 4.74636 2.32266C5.99733 1.46122 7.48037 0.999908 8.99925 0.999756C10.5181 0.999604 12.0013 1.46062 13.2524 2.32181C14.5035 3.18299 15.4637 4.40376 16.0059 5.82258C16.5481 7.24139 16.6467 8.79139 16.2887 10.2675C15.9307 11.7436 15.133 13.0762 14.0011 14.089C12.8801 15.093 12.3201 15.595 12.1691 15.781C11.6821 16.381 11.6611 16.43 11.5381 17.193C11.5001 17.43 11.5001 17.787 11.5001 18.5H6.50006C6.50006 19.435 6.50006 19.902 6.70106 20.25C6.83271 20.478 7.02205 20.6673 7.25006 20.799C7.59806 21 8.06506 21 9.00006 21C9.93506 21 10.4021 21 10.7511 20.8C10.9791 20.6683 11.1684 20.479 11.3001 20.251C11.5011 19.903 11.5011 19.436 11.5011 18.501" stroke="white" stroke-opacity="0.85" stroke-width="1.5"/>
  <path d="M9.00007 16V14M9.00007 14C9.35112 14 9.69599 13.9075 10 13.732C10.3041 13.5565 10.5565 13.304 10.7321 13M9.00007 14C8.64901 14 8.30414 13.9075 8.00011 13.732C7.69608 13.5565 7.44361 13.304 7.26807 13" stroke="white" stroke-opacity="0.85" stroke-width="1.5" stroke-linecap="round"/>
</svg>