<svg xmlns="http://www.w3.org/2000/svg" width="24" height="24" viewBox="0 0 24 24" fill="none">
  <path d="M10.3428 3.94005C10.4332 3.39759 10.9026 3 11.4525 3H12.5465C13.0964 3 13.5658 3.39759 13.6562 3.94005L13.8052 4.83386C13.8759 5.25813 14.1888 5.59838 14.586 5.76332C14.9835 5.92832 15.4398 5.90629 15.79 5.65617L16.5275 5.12933C16.975 4.80969 17.5881 4.86042 17.9769 5.24929L18.7505 6.02284C19.1393 6.41171 19.1901 7.02472 18.8704 7.47223L18.3434 8.21007C18.0934 8.56012 18.0713 9.01633 18.2363 9.41363C18.4011 9.81078 18.7413 10.1236 19.1655 10.1943L20.0595 10.3433C20.6019 10.4337 20.9995 10.9031 20.9995 11.453V12.547C20.9995 13.0969 20.6019 13.5663 20.0595 13.6567L19.1656 13.8056C18.7414 13.8764 18.4011 14.1893 18.2362 14.5865C18.0712 14.9839 18.0932 15.4403 18.3433 15.7904L18.8701 16.5278C19.1897 16.9753 19.139 17.5884 18.7501 17.9772L17.9766 18.7508C17.5877 19.1396 16.9747 19.1904 16.5272 18.8707L15.7896 18.3439C15.4395 18.0938 14.9833 18.0718 14.5859 18.2367C14.1887 18.4016 13.8759 18.7418 13.8052 19.166L13.6562 20.0599C13.5658 20.6024 13.0964 21 12.5465 21H11.4525C10.9026 21 10.4332 20.6024 10.3428 20.0599L10.1939 19.1661C10.1232 18.7419 9.81023 18.4016 9.413 18.2367C9.01559 18.0717 8.55926 18.0937 8.20911 18.3438L7.47149 18.8707C7.02398 19.1904 6.41097 19.1396 6.0221 18.7507L5.24855 17.9772C4.85968 17.5883 4.80895 16.9753 5.1286 16.5278L5.65563 15.79C5.90567 15.4399 5.92772 14.9837 5.76277 14.5864C5.59788 14.1892 5.25771 13.8764 4.83353 13.8057L3.93956 13.6567C3.3971 13.5663 2.99951 13.0969 2.99951 12.547V11.453C2.99951 10.9031 3.3971 10.4337 3.93956 10.3433L4.83337 10.1944C5.25764 10.1236 5.5979 9.81071 5.76283 9.41347C5.92784 9.01605 5.9058 8.5597 5.65569 8.20954L5.12899 7.47216C4.80934 7.02465 4.86008 6.41164 5.24895 6.02277L6.0225 5.24922C6.41136 4.86036 7.02438 4.80962 7.47188 5.12927L8.20948 5.65613C8.55955 5.90618 9.01579 5.92822 9.41311 5.76326C9.81028 5.59837 10.1231 5.25819 10.1938 4.834L10.3428 3.94005Z" stroke="white" stroke-opacity="0.85" stroke-width="1.5" stroke-linecap="round" stroke-linejoin="round"/>
  <path d="M15.0002 12C15.0002 13.6569 13.6571 15 12.0002 15C10.3434 15 9.00021 13.6569 9.00021 12C9.00021 10.3432 10.3434 9.00002 12.0002 9.00002C13.6571 9.00002 15.0002 10.3432 15.0002 12Z" stroke="white" stroke-opacity="0.85" stroke-width="1.5" stroke-linecap="round" stroke-linejoin="round"/>
</svg>